<?xml version="1.0" encoding="UTF-8" standalone="no"?>
<!-- Created with Inkscape (http://www.inkscape.org/) -->

<svg
   xmlns:dc="http://purl.org/dc/elements/1.1/"
   xmlns:cc="http://creativecommons.org/ns#"
   xmlns:rdf="http://www.w3.org/1999/02/22-rdf-syntax-ns#"
   xmlns:svg="http://www.w3.org/2000/svg"
   xmlns="http://www.w3.org/2000/svg"
   xmlns:sodipodi="http://sodipodi.sourceforge.net/DTD/sodipodi-0.dtd"
   xmlns:inkscape="http://www.inkscape.org/namespaces/inkscape"
   width="744.09448819"
   height="1052.3622047"
   id="svg2"
   version="1.1"
   inkscape:version="0.48.4 r9939"
   sodipodi:docname="library_ring.svg">
  <defs
     id="defs4" />
  <sodipodi:namedview
     id="base"
     pagecolor="#ffffff"
     bordercolor="#666666"
     borderopacity="1.0"
     inkscape:pageopacity="0.0"
     inkscape:pageshadow="2"
     inkscape:zoom="1.4"
     inkscape:cx="194.93354"
     inkscape:cy="875.91938"
     inkscape:document-units="px"
     inkscape:current-layer="layer1"
     showgrid="false"
     inkscape:window-width="1855"
     inkscape:window-height="1056"
     inkscape:window-x="65"
     inkscape:window-y="24"
     inkscape:window-maximized="1" />
  <metadata
     id="metadata7">
    <rdf:RDF>
      <cc:Work
         rdf:about="">
        <dc:format>image/svg+xml</dc:format>
        <dc:type
           rdf:resource="http://purl.org/dc/dcmitype/StillImage" />
        <dc:title />
      </cc:Work>
    </rdf:RDF>
  </metadata>
  <g
     inkscape:label="Layer 1"
     inkscape:groupmode="layer"
     id="layer1">
    <path
       style="fill:#e6e6e6;stroke:none"
       d="m 294.13779,71.831239 c -11.19326,0 -23.31004,1.249355 -33.70019,3.842481 l 49.75143,262.08486 c 61.41709,-8.73303 117.54251,-61.18594 117.54251,-132.33359 0,-73.78119 -59.81256,-133.593751 -133.59375,-133.593751 z"
       id="path3018"
       inkscape:connector-curvature="0"
       sodipodi:nodetypes="sccss" />
    <path
       sodipodi:type="arc"
       style="fill:none;fill-opacity:1;stroke:#cccccc"
       id="path2985"
       sodipodi:cx="293.19678"
       sodipodi:cy="205.09674"
       sodipodi:rx="133.59267"
       sodipodi:ry="133.59267"
       d="m 426.78944,205.09674 a 133.59267,133.59267 0 1 1 -267.18533,0 133.59267,133.59267 0 1 1 267.18533,0 z" />
    <path
       sodipodi:type="arc"
       style="fill:#000000;stroke:#000000;stroke-width:1;stroke-miterlimit:4;stroke-opacity:1;stroke-dasharray:none;stroke-dashoffset:0"
       id="path2987"
       sodipodi:cx="310.35715"
       sodipodi:cy="89.147896"
       sodipodi:rx="29.285715"
       sodipodi:ry="29.285715"
       d="m 339.64286,89.147896 a 29.285715,29.285715 0 1 1 -58.57143,0 29.285715,29.285715 0 1 1 58.57143,0 z"
       transform="translate(-17.5,-13.214286)" />
    <path
       sodipodi:type="arc"
       style="fill:#000000;stroke:#000000;stroke-width:1;stroke-miterlimit:4;stroke-opacity:1;stroke-dasharray:none;stroke-dashoffset:0"
       id="path2987-3"
       sodipodi:cx="310.35715"
       sodipodi:cy="89.147896"
       sodipodi:rx="29.285715"
       sodipodi:ry="29.285715"
       d="m 339.64286,89.147896 a 29.285715,29.285715 0 1 1 -58.57143,0 29.285715,29.285715 0 1 1 58.57143,0 z"
       transform="matrix(0.77218226,0,0,0.77218226,111.77629,19.595186)" />
    <path
       sodipodi:type="arc"
       style="fill:#000000;stroke:#000000;stroke-width:1;stroke-miterlimit:4;stroke-opacity:1;stroke-dasharray:none;stroke-dashoffset:0"
       id="path2987-3-9"
       sodipodi:cx="310.35715"
       sodipodi:cy="89.147896"
       sodipodi:rx="29.285715"
       sodipodi:ry="29.285715"
       d="m 339.64286,89.147896 a 29.285715,29.285715 0 1 1 -58.57143,0 29.285715,29.285715 0 1 1 58.57143,0 z"
       transform="matrix(0.70023982,0,0,0.70023982,175.53271,52.794417)" />
    <path
       sodipodi:type="arc"
       style="fill:#000000;stroke:#000000;stroke-width:1;stroke-miterlimit:4;stroke-opacity:1;stroke-dasharray:none;stroke-dashoffset:0"
       id="path2987-3-9-6"
       sodipodi:cx="310.35715"
       sodipodi:cy="89.147896"
       sodipodi:rx="29.285715"
       sodipodi:ry="29.285715"
       d="m 339.64286,89.147896 a 29.285715,29.285715 0 1 1 -58.57143,0 29.285715,29.285715 0 1 1 58.57143,0 z"
       transform="matrix(0.56235014,0,0,0.56235014,244.98567,101.31687)" />
    <path
       sodipodi:type="arc"
       style="fill:#000000;stroke:#000000;stroke-width:1;stroke-miterlimit:4;stroke-opacity:1;stroke-dasharray:none;stroke-dashoffset:0"
       id="path2987-3-9-6-7"
       sodipodi:cx="310.35715"
       sodipodi:cy="89.147896"
       sodipodi:rx="29.285715"
       sodipodi:ry="29.285715"
       d="m 339.64286,89.147896 a 29.285715,29.285715 0 1 1 -58.57143,0 29.285715,29.285715 0 1 1 58.57143,0 z"
       transform="matrix(0.5023981,0,0,0.5023981,271.18412,144.81446)" />
    <path
       sodipodi:type="arc"
       style="fill:#e9afaf;stroke:#000000;stroke-width:1;stroke-miterlimit:4;stroke-opacity:1;stroke-dasharray:none;stroke-dashoffset:0"
       id="path2987-3-9-6-7-9"
       sodipodi:cx="310.35715"
       sodipodi:cy="89.147896"
       sodipodi:rx="29.285715"
       sodipodi:ry="29.285715"
       d="m 339.64286,89.147896 a 29.285715,29.285715 0 1 1 -58.57143,0 29.285715,29.285715 0 1 1 58.57143,0 z"
       transform="matrix(0.41846525,0,0,0.41846525,297.38122,188.51628)" />
    <path
       sodipodi:type="arc"
       style="fill:#e9afaf;stroke:#000000;stroke-width:1;stroke-miterlimit:4;stroke-opacity:1;stroke-dasharray:none;stroke-dashoffset:0"
       id="path2987-3-9-6-7-9-0"
       sodipodi:cx="310.35715"
       sodipodi:cy="89.147896"
       sodipodi:rx="29.285715"
       sodipodi:ry="29.285715"
       d="m 339.64286,89.147896 a 29.285715,29.285715 0 1 1 -58.57143,0 29.285715,29.285715 0 1 1 58.57143,0 z"
       transform="matrix(0.36450842,0,0,0.36450842,305.44364,219.86702)" />
    <path
       sodipodi:type="arc"
       style="fill:#e9afaf;stroke:#000000;stroke-width:1;stroke-miterlimit:4;stroke-opacity:1;stroke-dasharray:none;stroke-dashoffset:0"
       id="path2987-3-9-6-7-9-0-9"
       sodipodi:cx="310.35715"
       sodipodi:cy="89.147896"
       sodipodi:rx="29.285715"
       sodipodi:ry="29.285715"
       d="m 339.64286,89.147896 a 29.285715,29.285715 0 1 1 -58.57143,0 29.285715,29.285715 0 1 1 58.57143,0 z"
       transform="matrix(0.29256598,0,0,0.29256598,315.80719,250.56625)" />
    <path
       sodipodi:type="arc"
       style="fill:#e9afaf;stroke:#000000;stroke-width:1;stroke-miterlimit:4;stroke-opacity:1;stroke-dasharray:none;stroke-dashoffset:0"
       id="path2987-3-9-6-7-9-0-9-6"
       sodipodi:cx="310.35715"
       sodipodi:cy="89.147896"
       sodipodi:rx="29.285715"
       sodipodi:ry="29.285715"
       d="m 339.64286,89.147896 a 29.285715,29.285715 0 1 1 -58.57143,0 29.285715,29.285715 0 1 1 58.57143,0 z"
       transform="matrix(0.23860915,0,0,0.23860915,318.08881,273.05498)" />
    <path
       sodipodi:type="arc"
       style="fill:#000000;stroke:#000000;stroke-width:1;stroke-miterlimit:4;stroke-opacity:1;stroke-dasharray:none;stroke-dashoffset:0"
       id="path2987-3-9-6-7-9-0-9-6-8"
       sodipodi:cx="310.35715"
       sodipodi:cy="89.147896"
       sodipodi:rx="29.285715"
       sodipodi:ry="29.285715"
       d="m 339.64286,89.147896 a 29.285715,29.285715 0 1 1 -58.57143,0 29.285715,29.285715 0 1 1 58.57143,0 z"
       transform="matrix(0.22961634,0,0,0.22961634,305.87978,288.85665)" />
    <path
       sodipodi:type="arc"
       style="fill:#000000;stroke:#000000;stroke-width:1;stroke-miterlimit:4;stroke-opacity:1;stroke-dasharray:none;stroke-dashoffset:0"
       id="path2987-3-9-6-7-9-0-9-6-8-6"
       sodipodi:cx="310.35715"
       sodipodi:cy="89.147896"
       sodipodi:rx="29.285715"
       sodipodi:ry="29.285715"
       d="m 339.64286,89.147896 a 29.285715,29.285715 0 1 1 -58.57143,0 29.285715,29.285715 0 1 1 58.57143,0 z"
       transform="matrix(0.21462833,0,0,0.21462833,295.26357,300.54995)" />
    <path
       sodipodi:type="arc"
       style="fill:#000000;stroke:#000000;stroke-width:1;stroke-miterlimit:4;stroke-opacity:1;stroke-dasharray:none;stroke-dashoffset:0"
       id="path2987-3-9-6-7-9-0-9-6-8-6-1"
       sodipodi:cx="310.35715"
       sodipodi:cy="89.147896"
       sodipodi:rx="29.285715"
       sodipodi:ry="29.285715"
       d="m 339.64286,89.147896 a 29.285715,29.285715 0 1 1 -58.57143,0 29.285715,29.285715 0 1 1 58.57143,0 z"
       transform="matrix(0.20826946,0,0,0.20826946,282.96145,308.6303)" />
    <path
       sodipodi:type="arc"
       style="fill:#000000;stroke:#000000;stroke-width:1;stroke-miterlimit:4;stroke-opacity:1;stroke-dasharray:none;stroke-dashoffset:0"
       id="path2987-3-9-6-7-9-0-9-6-8-6-1-2"
       sodipodi:cx="310.35715"
       sodipodi:cy="89.147896"
       sodipodi:rx="29.285715"
       sodipodi:ry="29.285715"
       d="m 339.64286,89.147896 a 29.285715,29.285715 0 1 1 -58.57143,0 29.285715,29.285715 0 1 1 58.57143,0 z"
       transform="matrix(0.18872533,0,0,0.18872533,273.88691,315.78793)" />
    <path
       sodipodi:type="arc"
       style="fill:#000000;stroke:#000000;stroke-width:1;stroke-miterlimit:4;stroke-opacity:1;stroke-dasharray:none;stroke-dashoffset:0"
       id="path2987-3-9-6-7-9-0-9-6-8-6-1-8"
       sodipodi:cx="310.35715"
       sodipodi:cy="89.147896"
       sodipodi:rx="29.285715"
       sodipodi:ry="29.285715"
       d="m 339.64286,89.147896 a 29.285715,29.285715 0 1 1 -58.57143,0 29.285715,29.285715 0 1 1 58.57143,0 z"
       transform="matrix(0.14898237,0,0,-0.14898237,271.7505,349.91034)" />
    <path
       sodipodi:type="arc"
       style="fill:#000000;stroke:#000000;stroke-width:1;stroke-miterlimit:4;stroke-opacity:1;stroke-dasharray:none;stroke-dashoffset:0"
       id="path2987-3-9-6-7-9-0-9-6-8-6-1-8-8"
       sodipodi:cx="310.35715"
       sodipodi:cy="89.147896"
       sodipodi:rx="29.285715"
       sodipodi:ry="29.285715"
       d="m 339.64286,89.147896 a 29.285715,29.285715 0 1 1 -58.57143,0 29.285715,29.285715 0 1 1 58.57143,0 z"
       transform="matrix(0.12996814,0,0,0.12996814,250.19218,326.99471)" />
    <path
       sodipodi:type="arc"
       style="fill:#000000;stroke:#000000;stroke-width:1;stroke-miterlimit:4;stroke-opacity:1;stroke-dasharray:none;stroke-dashoffset:0"
       id="path2987-3-9-6-7-9-0-9-6-8-6-1-2-9"
       sodipodi:cx="310.35715"
       sodipodi:cy="89.147896"
       sodipodi:rx="29.285715"
       sodipodi:ry="29.285715"
       d="m 339.64286,89.147896 a 29.285715,29.285715 0 1 1 -58.57143,0 29.285715,29.285715 0 1 1 58.57143,0 z"
       transform="matrix(0.18872533,0,0,0.18872533,217.08401,320.7791)" />
    <path
       sodipodi:type="arc"
       style="fill:#000000;stroke:#000000;stroke-width:1;stroke-miterlimit:4;stroke-opacity:1;stroke-dasharray:none;stroke-dashoffset:0"
       id="path2987-3-9-6-7-9-0-9-6-8-6-1-1"
       sodipodi:cx="310.35715"
       sodipodi:cy="89.147896"
       sodipodi:rx="29.285715"
       sodipodi:ry="29.285715"
       d="m 339.64286,89.147896 a 29.285715,29.285715 0 1 1 -58.57143,0 29.285715,29.285715 0 1 1 58.57143,0 z"
       transform="matrix(0.20826946,0,0,0.20826946,192.82471,315.19814)" />
    <path
       sodipodi:type="arc"
       style="fill:#000000;stroke:#000000;stroke-width:1;stroke-miterlimit:4;stroke-opacity:1;stroke-dasharray:none;stroke-dashoffset:0"
       id="path2987-3-9-6-7-9-0-9-6-8-6-6"
       sodipodi:cx="310.35715"
       sodipodi:cy="89.147896"
       sodipodi:rx="29.285715"
       sodipodi:ry="29.285715"
       d="m 339.64286,89.147896 a 29.285715,29.285715 0 1 1 -58.57143,0 29.285715,29.285715 0 1 1 58.57143,0 z"
       transform="matrix(0.21462833,0,0,0.21462833,174.81713,309.65709)" />
    <path
       sodipodi:type="arc"
       style="fill:#000000;stroke:#000000;stroke-width:1;stroke-miterlimit:4;stroke-opacity:1;stroke-dasharray:none;stroke-dashoffset:0"
       id="path2987-3-9-6-7-9-0-9-6-0"
       sodipodi:cx="310.35715"
       sodipodi:cy="89.147896"
       sodipodi:rx="29.285715"
       sodipodi:ry="29.285715"
       d="m 339.64286,89.147896 a 29.285715,29.285715 0 1 1 -58.57143,0 29.285715,29.285715 0 1 1 58.57143,0 z"
       transform="matrix(0.23860915,0,0,0.23860915,150.76737,298.59068)" />
    <path
       sodipodi:type="arc"
       style="fill:#000000;stroke:#000000;stroke-width:1;stroke-miterlimit:4;stroke-opacity:1;stroke-dasharray:none;stroke-dashoffset:0"
       id="path2987-3-9-6-7-9-0-9-5"
       sodipodi:cx="310.35715"
       sodipodi:cy="89.147896"
       sodipodi:rx="29.285715"
       sodipodi:ry="29.285715"
       d="m 339.64286,89.147896 a 29.285715,29.285715 0 1 1 -58.57143,0 29.285715,29.285715 0 1 1 58.57143,0 z"
       transform="matrix(0.29256598,0,0,0.29256598,116.48559,281.30592)" />
    <path
       sodipodi:type="arc"
       style="fill:#000000;stroke:#000000;stroke-width:1;stroke-miterlimit:4;stroke-opacity:1;stroke-dasharray:none;stroke-dashoffset:0"
       id="path2987-3-9-6-7-9-0-5"
       sodipodi:cx="310.35715"
       sodipodi:cy="89.147896"
       sodipodi:rx="29.285715"
       sodipodi:ry="29.285715"
       d="m 339.64286,89.147896 a 29.285715,29.285715 0 1 1 -58.57143,0 29.285715,29.285715 0 1 1 58.57143,0 z"
       transform="matrix(0.36450842,0,0,0.36450842,76.023271,256.1917)" />
    <path
       sodipodi:type="arc"
       style="fill:#000000;stroke:#000000;stroke-width:1;stroke-miterlimit:4;stroke-opacity:1;stroke-dasharray:none;stroke-dashoffset:0"
       id="path2987-3-9-6-7-9-3"
       sodipodi:cx="310.35715"
       sodipodi:cy="89.147896"
       sodipodi:rx="29.285715"
       sodipodi:ry="29.285715"
       d="m 339.64286,89.147896 a 29.285715,29.285715 0 1 1 -58.57143,0 29.285715,29.285715 0 1 1 58.57143,0 z"
       transform="matrix(0.41846525,0,0,0.41846525,43.872556,227.39044)" />
    <path
       sodipodi:type="arc"
       style="fill:#000000;stroke:#000000;stroke-width:1;stroke-miterlimit:4;stroke-opacity:1;stroke-dasharray:none;stroke-dashoffset:0"
       id="path2987-3-9-6-7-93"
       sodipodi:cx="310.35715"
       sodipodi:cy="89.147896"
       sodipodi:rx="29.285715"
       sodipodi:ry="29.285715"
       d="m 339.64286,89.147896 a 29.285715,29.285715 0 1 1 -58.57143,0 29.285715,29.285715 0 1 1 58.57143,0 z"
       transform="matrix(0.5023981,0,0,0.5023981,7.8444233,188.62917)" />
    <path
       sodipodi:type="arc"
       style="fill:#000000;stroke:#000000;stroke-width:1;stroke-miterlimit:4;stroke-opacity:1;stroke-dasharray:none;stroke-dashoffset:0"
       id="path2987-3-9-6-7-2"
       sodipodi:cx="310.35715"
       sodipodi:cy="89.147896"
       sodipodi:rx="29.285715"
       sodipodi:ry="29.285715"
       d="m 339.64286,89.147896 a 29.285715,29.285715 0 1 1 -58.57143,0 29.285715,29.285715 0 1 1 58.57143,0 z"
       transform="matrix(0.55635493,0,0,0.55635493,-13.91873,146.15716)" />
    <path
       sodipodi:type="arc"
       style="fill:#000000;stroke:#000000;stroke-width:1;stroke-miterlimit:4;stroke-opacity:1;stroke-dasharray:none;stroke-dashoffset:0"
       id="path2987-3-9-9"
       sodipodi:cx="310.35715"
       sodipodi:cy="89.147896"
       sodipodi:rx="29.285715"
       sodipodi:ry="29.285715"
       d="m 339.64286,89.147896 a 29.285715,29.285715 0 1 1 -58.57143,0 29.285715,29.285715 0 1 1 58.57143,0 z"
       transform="matrix(0.70023982,0,0,0.70023982,-25.181575,54.222989)" />
    <path
       sodipodi:type="arc"
       style="fill:#000000;stroke:#000000;stroke-width:1;stroke-miterlimit:4;stroke-opacity:1;stroke-dasharray:none;stroke-dashoffset:0"
       id="path2987-3-1"
       sodipodi:cx="310.35715"
       sodipodi:cy="89.147896"
       sodipodi:rx="29.285715"
       sodipodi:ry="29.285715"
       d="m 339.64286,89.147896 a 29.285715,29.285715 0 1 1 -58.57143,0 29.285715,29.285715 0 1 1 58.57143,0 z"
       transform="matrix(0.77218226,0,0,0.77218226,-7.152283,17.809472)" />
    <path
       sodipodi:type="arc"
       style="fill:#000000;stroke:#000000;stroke-width:1;stroke-miterlimit:4;stroke-opacity:1;stroke-dasharray:none;stroke-dashoffset:0"
       id="path2987-3-9-6-7-2-7"
       sodipodi:cx="310.35715"
       sodipodi:cy="89.147896"
       sodipodi:rx="29.285715"
       sodipodi:ry="29.285715"
       d="m 339.64286,89.147896 a 29.285715,29.285715 0 1 1 -58.57143,0 29.285715,29.285715 0 1 1 58.57143,0 z"
       transform="matrix(0.62230217,0,0,0.62230217,-24.385926,100.27811)" />
    <path
       style="fill:none;stroke:#de8787;stroke-width:1px;stroke-linecap:butt;stroke-linejoin:miter;stroke-opacity:1"
       d="m 431.98749,209.62016 16.68542,0.86278 c -1.98749,54.11983 -19.97148,84.841 -50.93831,102.35151 l -10,-8.21429"
       id="path3504"
       inkscape:connector-curvature="0"
       sodipodi:nodetypes="cccc" />
    <text
       xml:space="preserve"
       style="font-size:10.25647259px;font-style:normal;font-weight:normal;line-height:125%;letter-spacing:0px;word-spacing:0px;fill:#000000;fill-opacity:1;stroke:none;font-family:Sans"
       x="446.10822"
       y="264.57349"
       id="text3553"
       sodipodi:linespacing="125%"><tspan
         sodipodi:role="line"
         id="tspan3555"
         x="446.10822"
         y="264.57349">Sliding window</tspan><tspan
         sodipodi:role="line"
         x="446.10822"
         y="277.39407"
         id="tspan3557">of length 4</tspan></text>
    <text
       xml:space="preserve"
       style="font-size:10.25647259px;font-style:normal;font-weight:normal;line-height:125%;letter-spacing:0px;word-spacing:0px;fill:#000000;fill-opacity:1;stroke:none;font-family:Sans"
       x="258.03302"
       y="42.164421"
       id="text3553-2"
       sodipodi:linespacing="125%"><tspan
         sodipodi:role="line"
         x="258.03302"
         y="42.164421"
         id="tspan3557-4">Largest library</tspan></text>
    <text
       xml:space="preserve"
       style="font-size:10.25647259px;font-style:normal;font-weight:normal;line-height:125%;letter-spacing:0px;word-spacing:0px;fill:#000000;fill-opacity:1;stroke:none;font-family:Sans"
       x="263.92014"
       y="359.70169"
       id="text3553-2-9"
       sodipodi:linespacing="125%"><tspan
         sodipodi:role="line"
         x="263.92014"
         y="359.70169"
         id="tspan3557-4-4">Smallest library</tspan></text>
    <text
       xml:space="preserve"
       style="font-size:10.25647259px;font-style:normal;font-weight:normal;line-height:125%;letter-spacing:0px;word-spacing:0px;fill:#000000;fill-opacity:1;stroke:none;font-family:Sans"
       x="316.40216"
       y="200.16742"
       id="text3553-1"
       sodipodi:linespacing="125%"><tspan
         sodipodi:role="line"
         x="316.40216"
         y="200.16742"
         id="tspan3557-1">Even ranks</tspan></text>
    <text
       xml:space="preserve"
       style="font-size:10.25647259px;font-style:normal;font-weight:normal;line-height:125%;letter-spacing:0px;word-spacing:0px;fill:#000000;fill-opacity:1;stroke:none;font-family:Sans"
       x="201.41203"
       y="200.16742"
       id="text3553-1-4"
       sodipodi:linespacing="125%"><tspan
         sodipodi:role="line"
         x="201.41203"
         y="200.16742"
         id="tspan3557-1-9">Odd ranks</tspan></text>
    <path
       sodipodi:type="arc"
       style="fill:#000000;stroke:#000000;stroke-width:1;stroke-miterlimit:4;stroke-opacity:1;stroke-dasharray:none;stroke-dashoffset:0"
       id="path2987-3-9-6-7-9-0-9-6-8-6-1-8-8-3"
       sodipodi:cx="310.35715"
       sodipodi:cy="89.147896"
       sodipodi:rx="29.285715"
       sodipodi:ry="29.285715"
       d="m 339.64286,89.147896 a 29.285715,29.285715 0 1 1 -58.57143,0 29.285715,29.285715 0 1 1 58.57143,0 z"
       transform="matrix(0.10665227,0,0,0.10665227,270.03399,329.20139)" />
  </g>
</svg>
